<svg xmlns="http://www.w3.org/2000/svg" width="159" height="158" fill="none" viewBox="0 0 159 158"><defs/><mask id="a" width="152" height="152" x="3" y="2" maskUnits="userSpaceOnUse"><rect width="151.977" height="151.977" x="3" y="2" fill="#fff" rx="75.989"/></mask><g mask="url(#a)"><rect width="151.977" height="151.977" x="3" y="2" fill="#0078D4" rx="75.989"/><rect width="151.977" height="151.977" x="3" y="2" fill="url(#paint0_linear)" fill-opacity=".4" rx="75.989"/></g><path fill="url(#paint1_linear)" d="M55.067 84.842v44.825c0 1.776 1.45 3.216 3.24 3.216.905 0 1.769-.376 2.382-1.036l9.355-10.072c4.85-5.223 13.05-5.554 18.312-.739.302.276.592.567.866.872l8.79 9.733a3.257 3.257 0 004.575.248 3.202 3.202 0 001.077-2.394V84.842"/><path fill="url(#paint2_linear)" d="M73.81 26.444l-.097.086a12.333 12.333 0 01-10.99 2.76l-.318-.075c-3.27-.768-6.556 1.216-7.372 4.452a10.359 10.359 0 01-7.316 7.444l-.487.133c-3.42.94-5.426 4.453-4.48 7.848l.039.135.188.622A9.882 9.882 0 0140.2 59.987a5.992 5.992 0 00-.208 8.63l.91.923a10.042 10.042 0 012.658 9.274c-.687 3.034 1.066 6.09 4.046 7.052l2.495.805a8.911 8.911 0 015.997 6.648c.593 2.838 3.309 4.728 6.2 4.314l1.219-.174a13.03 13.03 0 019.765 2.546l.528.404a8.198 8.198 0 009.815.104l.892-.654a13.033 13.033 0 019.668-2.363l.29.045c3.176.485 6.271-1.264 7.471-4.222a11.9 11.9 0 017.243-6.799l1.05-.353c3.37-1.134 5.321-4.624 4.505-8.062l-.047-.197a11.368 11.368 0 012.697-10.319 6.612 6.612 0 00.026-8.93l-.026-.028a11.621 11.621 0 01-2.732-10.416l.147-.642c.719-3.133-1.257-6.251-4.414-6.965a5.948 5.948 0 00-.307-.06l-.171-.03c-3.575-.61-6.412-3.327-7.155-6.85-.666-3.156-3.783-5.177-6.961-4.517a5.38 5.38 0 00-.126.028l-.482.111a12.968 12.968 0 01-11.287-2.729l-.266-.224a7.521 7.521 0 00-9.83.107z"/><ellipse cx="79.366" cy="63.94" fill="url(#paint3_linear)" rx="25.919" ry="25.725"/><path fill="#fff" d="M79.366 72.381l-9.045 4.72 1.727-9.997-7.317-7.08 10.113-1.459 4.522-9.096 4.523 9.096 10.113 1.459-7.318 7.08 1.728 9.997-9.046-4.72zM121.709 114.885c-.845-7.442-1.481-7.856-8.243-4.135 6.341-4.547 6.129-5.375-.424-9.096 7.187 3.101 7.82 2.687 7.82-4.961.845 7.648 1.48 8.062 8.243 4.134-6.342 4.548-6.13 5.376.423 9.303-7.186-3.101-7.819-2.686-7.819 4.755zM37.477 118.864c-1.224-11.394-2.144-12.028-11.939-6.331 9.184-6.963 8.878-8.231-.613-13.929 10.408 4.749 11.325 4.115 11.325-7.596 1.224 11.711 2.144 12.345 11.938 6.33-9.184 6.964-8.877 8.232.614 14.246-10.408-4.748-11.325-4.114-11.325 7.28zM99.086 42.117c-1.078-9.767-1.889-10.31-10.517-5.427 8.09-5.968 7.82-7.055-.54-11.939 9.169 4.07 9.976 3.526 9.976-6.512 1.079 10.039 1.889 10.582 10.517 5.427-8.09 5.968-7.82 7.055.541 12.21-9.17-4.07-9.977-3.526-9.977 6.24zM132.416 86.46c-1.224-11.395-2.144-12.029-11.938-6.332 9.184-6.963 8.877-8.23-.614-13.928 10.409 4.748 11.325 4.114 11.325-7.597 1.224 11.711 2.144 12.345 11.939 6.331-9.184 6.963-8.877 8.231.613 14.246-10.408-4.749-11.325-4.115-11.325 7.28zM30.122 65.425c-.729-6.744-1.276-7.119-7.107-3.747 5.467-4.121 5.285-4.871-.365-8.243 6.196 2.81 6.742 2.434 6.742-4.497.728 6.931 1.276 7.307 7.106 3.748-5.467 4.12-5.284 4.871.365 8.43-6.195-2.81-6.741-2.434-6.741 4.309z"/><defs><linearGradient id="paint0_linear" x1="-63.071" x2="-332.859" y1="-115.873" y2="252.837" gradientUnits="userSpaceOnUse"><stop stop-color="#fff"/><stop offset="1" stop-opacity=".5"/></linearGradient><linearGradient id="paint1_linear" x1="55.143" x2="55.143" y1="84.842" y2="132.733" gradientUnits="userSpaceOnUse"><stop stop-color="#D83F26"/><stop offset="1" stop-color="#F15925"/></linearGradient><linearGradient id="paint2_linear" x1="39.086" x2="39.086" y1="26.147" y2="102.092" gradientUnits="userSpaceOnUse"><stop stop-color="#FFE02A"/><stop offset="1" stop-color="#FFB518"/></linearGradient><linearGradient id="paint3_linear" x1="56.467" x2="56.467" y1="38.215" y2="83.671" gradientUnits="userSpaceOnUse"><stop stop-color="#FFD000"/><stop offset="1" stop-color="#F28200"/></linearGradient></defs></svg>